<svg width="450" height="450" fill="none" xmlns="http://www.w3.org/2000/svg"><path fill="#23282D" d="M0 0h450v450H0z"/><path d="M18.667 18.633h412.666l-2 412.735H18.667V18.632z" fill="#1F0040"/><path d="M0 0v450h450V0H0zm18.667 18.633h412.666v412.735H18.667V18.632zM126.56 246.88l-14.747 55.711c-.373 1.491-.933 2.05-2.8 2.05h-27.44c-1.866 0-2.24-.559-1.866-2.795l53.013-185.02c.933-3.354 1.493-5.963 1.867-15.279 0-1.304.56-1.863 1.493-1.863h39.2c1.307 0 1.867.372 2.24 1.863l59.36 200.672c.373 1.49 0 2.422-1.493 2.422h-30.8c-1.494 0-2.427-.559-2.8-1.863l-15.494-55.898H126.56zm52.453-30.184c-5.226-20.682-17.92-65.773-22.586-87.573h-.374c-3.92 21.8-14.186 58.692-21.84 87.573h44.8zm100.054 19.005c.373 25.154 12.32 42.109 40.693 42.109 11.013 0 20.533-1.49 30.427-5.776 1.306-.559 2.24-.372 2.24 1.304v23.291c0 1.863-.56 2.795-1.867 3.727-9.893 4.844-22.213 7.08-37.52 7.08-49.28 0-67.76-36.333-67.76-76.952 0-43.973 22.773-79.934 62.907-79.934 40.693 0 54.88 34.098 54.88 61.86 0 8.944-.56 16.211-1.494 19.751-.373 1.49-.933 2.049-2.426 2.422-3.734.559-14.747 1.304-31.174 1.304l-48.906-.186zm37.893-25.713c9.52 0 12.88 0 13.813-.373 0-1.304.374-2.236.374-3.167 0-10.062-4.854-28.694-24.267-28.694-17.92 0-25.573 15.651-27.44 32.234h37.52z" fill="#D291FF"/></svg>