<svg xmlns="http://www.w3.org/2000/svg" xmlns:xlink="http://www.w3.org/1999/xlink" width="450" height="450"><defs><linearGradient id="d" x1="-2876.2" y1="1827.78" x2="-2876.06" y2="1827.78" gradientTransform="matrix(628.07 0 0 -628.07 1806725.26 1148021.23)" gradientUnits="userSpaceOnUse"><stop offset="0" stop-color="#f59723"/><stop offset=".31" stop-color="#f69823"/><stop offset=".84" stop-color="#e87826"/><stop offset="1" stop-color="#e87826"/></linearGradient><linearGradient id="a" x1="-2878.08" y1="1829.21" x2="-2877.94" y2="1829.21" gradientTransform="matrix(2912.32 0 0 -2912.32 8381767.23 5327360.66)" gradientUnits="userSpaceOnUse"><stop offset="0" stop-color="#9e2064"/><stop offset=".32" stop-color="#9e2064"/><stop offset=".63" stop-color="#c92037"/><stop offset=".75" stop-color="#cc2336"/><stop offset="1" stop-color="#e87826"/></linearGradient><linearGradient id="b" x1="-2877.63" y1="1828.82" x2="-2877.49" y2="1828.82" gradientTransform="matrix(1735.46 0 0 -1735.46 4994101 3174165.3)" gradientUnits="userSpaceOnUse"><stop offset="0" stop-color="#282762"/><stop offset=".1" stop-color="#662f8c"/><stop offset=".79" stop-color="#9e2064"/><stop offset=".95" stop-color="#cc2033"/><stop offset="1" stop-color="#cc2033"/></linearGradient><linearGradient id="h" x1="-2878.13" y1="1829.21" x2="-2877.99" y2="1829.21" gradientTransform="matrix(2912.32 0 0 -2912.32 8381995.65 5327440.96)" xlink:href="#a"/><linearGradient id="j" x1="-2877.46" y1="1828.51" x2="-2877.32" y2="1828.51" gradientTransform="matrix(1530.51 0 0 -1530.51 4404078.68 2798893.87)" xlink:href="#b"/><linearGradient id="l" x1="-2878.13" y1="1829.3" x2="-2877.99" y2="1829.3" gradientTransform="matrix(2912.32 0 0 -2912.32 8382028.43 5327713.12)" xlink:href="#a"/><linearGradient id="n" x1="-2878.07" y1="1829.29" x2="-2877.93" y2="1829.29" gradientTransform="matrix(2912.32 0 0 -2912.32 8381776.58 5327595.48)" xlink:href="#a"/><clipPath id="c"><path data-name="SVGID" d="M303.83 44.42l-1 1c.64-.71 1-1 1-1M302.71 23a13 13 0 00-6.61 1.92c-6.34 3.75-16.87 14.33-29.43 29.68l11.54 21.8a284.42 284.42 0 0124.65-30.93c-2.68 3-10.84 12.47-23.14 31.37 11.84-.59 30-3 44.89-5.55 4.42-24.75-4.33-36.07-4.33-36.07S312.76 23 302.83 23z" fill="none"/></clipPath><clipPath id="e"><path data-name="SVGID" d="M264 57.83c-3.33 4.15-6.79 8.61-10.33 13.35-4 5.33-8.11 11-12.28 17-3.86 5.52-7.76 11.3-11.68 17.29q-5 7.65-10 15.72c-.13.2-.25.4-.37.61l15 29.68c3.21-6.37 6.46-12.65 9.75-18.79q5.27-9.84 10.66-19.22 5.59-9.72 11.31-18.83c.23-.36.45-.72.67-1.08q5.65-8.94 11.41-17.18l-11.55-21.8c-.87 1.06-1.74 2.14-2.63 3.24" fill="none"/></clipPath><clipPath id="f"><path data-name="SVGID" d="M189 295.52l-12.15 1.33c-.37 1-.75 2-1.12 3.08q-3 8.19-6 16.71a2.41 2.41 0 00-.08.25c-.29.8-.57 1.61-.85 2.41-1.36 3.84-2.53 7.29-5.22 15.13 4.43 2 8 7.34 11.35 13.37a24.26 24.26 0 00-7.85-16.66c21.82 1 40.63-4.53 50.34-20.49a39.29 39.29 0 002.38-4.51c-4.42 5.6-9.89 8-20.2 7.41h-.07.07c15.18-6.8 22.79-13.32 29.53-24.13 1.59-2.56 3.14-5.36 4.73-8.47-13.27 13.63-28.66 17.51-44.86 14.57" fill="none"/></clipPath><clipPath id="g"><path data-name="SVGID" d="M218.66 123q-5.25 8.58-10.4 17.54T198.09 159q-4.2 7.88-8.19 15.92c-.54 1.08-1.06 2.16-1.58 3.23q-4.92 10.13-8.91 19.51c-3 7.1-5.69 13.87-8 20.29q-2.31 6.34-4.21 12.23c-1.06 3.35-2 6.69-3 10-2.24 7.86-4.18 15.71-5.76 23.53l15.09 29.8q3-8 6.14-16.21c.58-1.52 1.18-3.06 1.77-4.59q3.94-10.17 8.11-20.57 4-10 8.18-20t8.52-20.14q4.45-10.28 9.08-20.48t9.3-20q1.71-3.59 3.44-7.14 3-6.13 6-12.18l.33-.65-15-29.68-.74 1.2" fill="none"/></clipPath><clipPath id="i"><path data-name="SVGID" d="M158.18 264.76a228.61 228.61 0 00-3.92 28.48c0 .33 0 .66-.08 1-4.71-7.55-17.33-14.92-17.3-14.85 9 13.09 15.89 26.09 16.91 38.86-4.84 1-11.47-.45-19.12-3.26 8 7.34 14 9.36 16.31 9.91-7.33.45-15 5.49-22.66 11.29 11.25-4.59 20.34-6.4 26.85-4.93-10.33 29.23-20.67 61.5-31 95.76a9 9 0 006.13-6c1.85-6.21 14.09-46.91 33.28-100.41q.81-2.28 1.65-4.59c.15-.43.31-.86.46-1.28q3-8.41 6.3-17.18c.5-1.33 1-2.66 1.49-4v-.08l-15.09-29.8c-.07.35-.15.7-.22 1.05" fill="none"/></clipPath><clipPath id="k"><path data-name="SVGID" d="M293.56 143.48c-4.08 2.45-11.11 4.67-16.76 5.71l-.25.05-1.71.27.3-.14-38.14 4.18-.21.43c-.44.89-.87 1.77-1.3 2.67q-2 4-4 8.22-2.16 4.55-4.37 9.3c-.74 1.59-1.49 3.2-2.23 4.83q-3.37 7.33-6.84 15.14-4.26 9.62-8.67 20-4.2 9.87-8.52 20.45-4.1 10-8.29 20.73-3.75 9.53-7.56 19.59l-.36 1q-3.79 10-7.63 20.52l-.18.48 12.16-1.39-.72-.13c14.53-1.81 33.84-12.66 46.32-26.06a115.6 115.6 0 0015.8-22 191.1 191.1 0 0010.18-21.17c2.81-6.81 5.51-14.18 8.11-22.17a43.71 43.71 0 01-11.38 3.94c-.74.16-1.49.31-2.25.44s-1.54.26-2.33.37c13.55-5.21 22.1-15.28 28.3-27.6a48.19 48.19 0 01-16.3 7.13c-.94.21-1.91.38-2.89.52l-.73.11a55.2 55.2 0 0012.11-6.77 46.1 46.1 0 002.14-1.73 38.91 38.91 0 003-2.87c.61-.64 1.2-1.31 1.78-2a49.58 49.58 0 003.79-5.22c.36-.57.72-1.16 1.07-1.76.45-.87.88-1.72 1.3-2.56 1.89-3.8 3.4-7.2 4.61-10.17.6-1.49 1.12-2.87 1.58-4.15.18-.51.35-1 .51-1.48.48-1.43.87-2.7 1.18-3.82a36.78 36.78 0 00.89-4 15.64 15.64 0 01-1.59 1.08" fill="none"/></clipPath><clipPath id="m"><path data-name="SVGID" d="M279.72 76.83c-3.39 5.2-7.1 11.12-11.09 17.82l-.63 1.06q-5.17 8.7-10.95 19.15c-3.32 6-6.78 12.48-10.38 19.43q-4.71 9.08-9.7 19.26l38.17-4.18c11.12-5.11 16.09-9.74 20.91-16.44 1.28-1.84 2.57-3.77 3.85-5.77 3.92-6.12 7.76-12.86 11.2-19.56a202 202 0 008.48-18.66 96.16 96.16 0 003.42-10.1c.69-2.65 1.23-5.17 1.66-7.56-14.84 2.53-33.05 5-44.89 5.55" fill="none"/></clipPath></defs><path fill="#d2d2f9" d="M0 0h450v450H0z" data-name="Layer 2"/><g data-name="Layer 1"><g clip-path="url(#c)"><path transform="rotate(-15.54 297.808 49.893)" fill="url(#d)" d="M260.6 15.63h74.51V84.2H260.6z"/></g><g clip-path="url(#e)"><path transform="rotate(-65 248.807 103.041)" fill="url(#a)" d="M192.47 55.91h112.68v94.26H192.47z"/></g><g clip-path="url(#f)"><path transform="rotate(-65 198.725 314.375)" fill="url(#b)" d="M153.58 268.4h90.28v91.94h-90.28z"/></g><g clip-path="url(#g)"><path transform="rotate(-65 196.413 207.661)" fill="url(#h)" d="M102.54 136.92h187.75v141.47H102.54z"/></g><g clip-path="url(#i)"><path transform="rotate(-65 148.81 345.357)" fill="url(#j)" d="M64.39 288.49h168.85v113.73H64.39z"/></g><g clip-path="url(#k)"><path transform="rotate(-65 235.993 219.625)" fill="url(#l)" d="M141.01 133.38h189.97v172.48H141.01z"/></g><g clip-path="url(#m)"><path transform="rotate(-65 280.79 112.416)" fill="url(#n)" d="M224.98 55.31h111.61v114.21H224.98z"/></g></g></svg>