<svg width="450" height="450" fill="none" xmlns="http://www.w3.org/2000/svg"><path fill="#EFEFEF" d="M0 0h450v450H0z"/><g clip-path="url(#clip0)"><path d="M346.4 308.792c-4.537 10.481-9.907 20.129-16.129 28.999-8.482 12.092-15.426 20.462-20.778 25.11-8.296 7.629-17.184 11.537-26.702 11.759-6.834 0-15.074-1.944-24.666-5.889-9.624-3.926-18.468-5.87-26.555-5.87-8.481 0-17.577 1.944-27.307 5.87-9.744 3.945-17.593 6-23.595 6.204-9.128.389-18.226-3.63-27.307-12.074-5.796-5.055-13.046-13.722-21.731-25.999-9.318-13.111-16.979-28.314-22.98-45.647-6.428-18.722-9.65-36.851-9.65-54.402 0-20.105 4.344-37.445 13.046-51.976 6.839-11.672 15.936-20.879 27.323-27.638s23.69-10.204 36.94-10.424c7.249 0 16.757 2.243 28.571 6.65 11.781 4.422 19.346 6.664 22.662 6.664 2.48 0 10.883-2.622 25.129-7.849 13.472-4.848 24.842-6.856 34.157-6.065 25.239 2.037 44.202 11.987 56.813 29.912-22.574 13.677-33.74 32.834-33.518 57.409.204 19.142 7.148 35.072 20.796 47.719 6.185 5.871 13.092 10.407 20.777 13.63a225.209 225.209 0 01-5.296 13.907zm-57.887-227.79c0 15.004-5.482 29.012-16.407 41.979-13.185 15.414-29.133 24.321-46.427 22.916a46.79 46.79 0 01-.348-5.685c0-14.404 6.27-29.818 17.405-42.421 5.559-6.382 12.63-11.688 21.203-15.92 8.556-4.17 16.648-6.476 24.259-6.87a54.55 54.55 0 01.315 6.001z" fill="#000"/></g><defs><clipPath id="clip0"><path fill="#fff" d="M99 75h252.696v300H99z"/></clipPath></defs></svg>