<svg width="450" height="450" fill="none" xmlns="http://www.w3.org/2000/svg"><path fill="#31AADC" d="M0 0h450v450H0z"/><path d="M357.628 74l-24.199 271.095-108.777 30.157-108.478-30.115L92 74h265.628z" fill="#264DE4"/><path d="M312.712 327.833l20.68-231.664H224.814v256.032l87.898-24.368z" fill="#2965F1"/><path d="M147.418 196.731l2.98 33.253h74.416v-33.253h-77.396zM224.814 129.424H141.429l3.023 33.254h80.362v-33.254zM224.814 317.692v-34.598l-.146.039-37.035-10-2.367-26.521h-33.382l4.659 52.213 68.118 18.91.153-.043z" fill="#EBEBEB"/><path d="M265.648 229.984l-3.86 43.128-37.089 10.01v34.597l68.173-18.894.5-5.618 7.814-87.547.811-8.93 6.004-67.306h-83.302v33.254h46.858l-3.026 34.052h-43.832v33.254h40.949z" fill="#fff"/></svg>