<svg width="450" height="450" viewBox="0 0 450 450" fill="none" xmlns="http://www.w3.org/2000/svg">
<rect width="450" height="450" fill="#1A1426"/>
<path d="M362.5 225H275V250H335C326.25 287.5 298.75 318.75 262.5 331.25L118.75 187.5C133.75 143.75 176.25 112.5 225 112.5C262.5 112.5 296.25 131.25 317.5 160L336.25 143.75C311.25 110 271.25 87.5 225 87.5C160 87.5 105 133.75 91.25 195L256.25 360C316.25 345 362.5 290 362.5 225ZM87.5 226.25C87.5 261.25 101.25 295 127.5 321.25C153.75 347.5 188.75 361.25 222.5 361.25L87.5 226.25Z" fill="white"/>
<path d="M225 50C128.75 50 50 128.75 50 225C50 321.25 128.75 400 225 400C321.25 400 400 321.25 400 225C400 128.75 321.25 50 225 50ZM127.5 322.5C101.25 296.25 87.5 261.25 87.5 227.5L223.75 362.5C188.75 361.25 153.75 348.75 127.5 322.5ZM255 358.75L91.25 195C105 133.75 160 87.5 225 87.5C271.25 87.5 311.25 110 336.25 143.75L317.5 160C296.25 131.25 262.5 112.5 225 112.5C176.25 112.5 135 143.75 118.75 187.5L262.5 331.25C298.75 318.75 326.25 287.5 335 250H275V225H362.5C362.5 290 316.25 345 255 358.75Z" fill="#663399"/>
</svg>
