<svg width="450" height="450" fill="none" xmlns="http://www.w3.org/2000/svg"><path fill="#F1F0E8" d="M0 0h450v450H0z"/><path d="M369.356 211.638L238.36 80.658c-7.538-7.544-19.772-7.544-27.319 0l-27.2 27.203 34.502 34.502c8.021-2.708 17.215-.893 23.606 5.499 6.423 6.432 8.226 15.704 5.45 23.752l33.254 33.254c8.045-2.773 17.327-.982 23.752 5.454 8.981 8.979 8.981 23.528 0 32.509-8.983 8.984-23.532 8.984-32.52 0-6.753-6.759-8.423-16.681-5.003-25.002l-31.013-31.013-.002 81.61a23.181 23.181 0 016.08 4.348c8.979 8.977 8.979 23.524 0 32.516-8.981 8.978-23.537 8.978-32.508 0-8.98-8.992-8.98-23.538 0-32.516a22.992 22.992 0 017.527-5.016v-82.369a22.667 22.667 0 01-7.529-5.017c-6.802-6.796-8.44-16.779-4.952-25.132l-34.012-34.018-89.813 89.811c-7.547 7.55-7.547 19.784 0 27.329l130.988 130.98c7.541 7.544 19.772 7.544 27.324 0l130.382-130.361c7.544-7.548 7.544-19.786 0-27.332" fill="#F05133"/></svg>