<svg width="450" height="450" fill="none" xmlns="http://www.w3.org/2000/svg"><g clip-path="url(#clip0)"><path d="M0 0h450v450H0V0z" fill="#CF4547"/><path d="M155.703 227.997c-.212.308-.582 1.269-1.128 2.9a384.845 384.845 0 00-1.984 6.117 475.76 475.76 0 00-2.52 8.232 4683.65 4683.65 0 01-2.795 9.29 774.606 774.606 0 00-2.758 9.299c-.882 3.032-1.675 5.782-2.371 8.233-.697 2.45-1.278 4.504-1.746 6.17-.467 1.657-.749 2.635-.855 2.944-.255.978-.669 2.071-1.242 3.27a22.024 22.024 0 01-2.019 3.402c-.776 1.075-1.63 1.966-2.565 2.671-.934.705-1.895 1.057-2.873 1.057-1.657 0-2.865-.555-3.614-1.657-.749-1.101-1.128-3.129-1.128-6.073v-1.286c0-.432.026-.891.079-1.376.053-.978.441-2.82 1.164-5.526a389.714 389.714 0 012.6-9.158 522.283 522.283 0 013.261-10.586c1.163-3.649 2.212-6.919 3.147-9.801a154.926 154.926 0 01-8.938 9.158 96.085 96.085 0 01-9.863 8.188c-3.367 2.424-6.76 4.407-10.18 5.932-3.42 1.534-6.708 2.301-9.863 2.301-3.623 0-6.743-.803-9.361-2.389-2.618-1.595-4.777-3.684-6.487-6.258s-2.98-5.491-3.808-8.744a39.385 39.385 0 01-1.243-9.757v-1.199c0-.37.027-.731.08-1.102.308-5.888 1.154-11.934 2.52-18.13a147.358 147.358 0 015.403-18.493 171.087 171.087 0 017.73-17.989c2.927-5.862 6.109-11.397 9.555-16.606 3.446-5.21 7.104-10.013 10.991-14.403 3.887-4.389 7.871-8.162 11.961-11.317 4.09-3.156 8.224-5.624 12.393-7.404 4.169-1.781 8.303-2.671 12.393-2.671 4.715 0 9.272 1.287 13.67 3.861 4.399 2.574 8.515 6.751 12.349 12.516.881 1.287 1.437 2.591 1.666 3.913.229 1.323.353 2.565.353 3.729 0 2.759-.662 4.936-1.984 6.531-1.322 1.596-2.891 2.389-4.698 2.389-1.657 0-3.199-.873-4.618-2.627-1.428-1.745-3.015-4.248-4.778-7.501-1.657-2.944-3.481-5.077-5.473-6.399s-4.16-1.974-6.487-1.974c-3.623 0-7.501 1.507-11.617 4.513-4.117 3.005-8.198 6.981-12.235 11.917-4.036 4.935-7.915 10.577-11.617 16.932a176.418 176.418 0 00-9.827 19.505c-2.847 6.655-5.113 13.222-6.796 19.691-1.684 6.47-2.521 12.287-2.521 17.444 0 1.718.115 3.481.353 5.288.237 1.807.67 3.455 1.322 4.927.643 1.472 1.525 2.689 2.644 3.632 1.111.952 2.521 1.428 4.231 1.428 1.912 0 4.09-.644 6.522-1.931 2.433-1.287 4.963-2.97 7.572-5.059 2.617-2.089 5.244-4.451 7.888-7.087a125.494 125.494 0 007.378-8.003c2.274-2.697 4.301-5.288 6.055-7.774 1.763-2.486 3.085-4.645 3.958-6.487l7.227-21.622c.882-2.326 2.036-3.984 3.455-4.971 1.428-.978 2.892-1.472 4.39-1.472.723 0 1.445.124 2.177.37a5.307 5.307 0 011.939 1.155c.573.52 1.023 1.199 1.358 2.027.334.829.502 1.799.502 2.9 0 2.944-.256 5.703-.776 8.286a66.343 66.343 0 01-1.983 7.545 125.437 125.437 0 01-2.679 7.404 182.883 182.883 0 00-2.856 7.765v0zm97.961 18.034c-2.283 3.067-4.936 6.055-7.96 8.973-3.032 2.917-6.152 5.508-9.36 7.774-3.209 2.265-6.373 4.089-9.476 5.473-3.111 1.384-5.905 2.072-8.391 2.072-2.485 0-4.504-.829-6.064-2.486-1.551-1.657-2.327-4.478-2.327-8.47 0-2.821.415-6.109 1.243-9.846-1.348 2.398-3.032 4.821-5.05 7.272a44.245 44.245 0 01-6.92 6.716c-2.591 2.027-5.491 3.667-8.699 4.919-3.209 1.26-6.708 1.886-10.489 1.886-1.71 0-3.358-.212-4.936-.644-1.578-.432-2.962-1.163-4.151-2.203-1.19-1.04-2.151-2.433-2.874-4.187-.723-1.745-1.084-3.94-1.084-6.575 0-.062.106-.996.308-2.803.203-1.807.864-4.663 1.984-8.559 1.11-3.896 2.838-8.937 5.165-15.134 2.336-6.196 5.623-13.706 9.863-22.547 1.084-2.326 2.344-4.001 3.763-5.015 1.428-1.013 2.962-1.516 4.619-1.516.723 0 1.472.106 2.257.317a7.576 7.576 0 012.177 1.014 5.41 5.41 0 011.63 1.745c.415.705.626 1.516.626 2.442 0 .617-.079 1.199-.238 1.745-.256 1.049-.811 2.406-1.675 4.099a495.1 495.1 0 01-2.988 5.799 527.237 527.237 0 00-3.613 7.043 99.914 99.914 0 00-3.535 7.818 78.733 78.733 0 00-2.794 8.233c-.776 2.794-1.216 5.508-1.322 8.144 0 1.102.255 2.115.776 3.041.52.916 1.375 1.384 2.564 1.384 3.367 0 6.576-1.102 9.634-3.315 3.059-2.203 5.879-4.953 8.471-8.232a78.24 78.24 0 007.033-10.586c2.098-3.772 3.852-7.219 5.245-10.348a52.389 52.389 0 002.6-6.716 66.74 66.74 0 012.45-6.628c.882-2.028 1.887-3.711 3.033-5.06 1.137-1.348 2.564-2.027 4.274-2.027 1.86 0 3.341.705 4.425 2.115 1.084 1.411 1.631 3.103 1.631 5.06 0 1.102-.344 2.626-1.049 4.557a130.69 130.69 0 01-2.644 6.628 683.814 683.814 0 01-3.456 7.959 140.794 140.794 0 00-3.455 8.603 86.686 86.686 0 00-2.644 8.558c-.696 2.795-1.049 5.386-1.049 7.775 0 2.212 1.137 3.314 3.42 3.314 1.604 0 3.596-.556 5.985-1.657 2.388-1.102 4.883-2.653 7.501-4.645 2.618-1.992 5.227-4.337 7.844-7.043a56.542 56.542 0 006.955-8.744l.767 12.508v0z" fill="#fff" stroke="#fff" stroke-width="3" stroke-miterlimit="10"/><path d="M256.079 241.43c-.573 1.41-1.128 3.049-1.675 4.927-.546 1.868-.811 3.543-.811 5.015 0 .917.159 1.657.467 2.212.309.556.908.829 1.79.829 1.084 0 2.441-.379 4.081-1.155 1.63-.767 3.393-1.78 5.279-3.041 1.895-1.251 3.861-2.697 5.906-4.327a181.42 181.42 0 0011.89-10.304 227.146 227.146 0 004.936-4.83 3.436 3.436 0 011.472-.917c.564-.185 1.058-.273 1.472-.273 1.031 0 1.895.432 2.565 1.287.67.855 1.005 1.992 1.005 3.402 0 1.287-.362 2.732-1.085 4.328-.722 1.595-1.992 3.164-3.807 4.689a233.27 233.27 0 01-10.022 10.304c-3.367 3.252-6.716 6.117-10.057 8.602-3.34 2.486-6.655 4.46-9.942 5.941-3.288 1.472-6.487 2.204-9.599 2.204-2.124 0-3.896-.335-5.324-1.014-1.427-.679-2.564-1.595-3.419-2.759-.855-1.163-1.464-2.547-1.825-4.143a22.84 22.84 0 01-.546-5.059c0-3.006.379-6.091 1.128-9.246.749-3.155 1.639-6.055 2.679-8.691 1.816-4.786 3.649-9.537 5.518-14.261 1.86-4.725 3.57-9.052 5.13-12.975l23.534-59.354c.934-2.389 2.185-4.081 3.772-5.06 1.578-.978 3.173-1.472 4.777-1.472s3.068.52 4.39 1.56c1.322 1.04 1.983 2.733 1.983 5.06 0 1.101-.22 2.274-.661 3.499a44.055 44.055 0 01-1.666 3.957 624.479 624.479 0 00-4.619 10.578 1378.05 1378.05 0 00-5.746 13.617 1730.63 1730.63 0 00-6.294 15.32c-2.15 5.306-4.248 10.471-6.293 15.504a1962.147 1962.147 0 00-5.747 14.305 1218.895 1218.895 0 00-4.636 11.741v0z" fill="#fff" stroke="#fff" stroke-width="3" stroke-miterlimit="10"/><path d="M366.159 224.771c.723-.494 1.402-.89 2.019-1.199.617-.308 1.216-.458 1.789-.458 1.137 0 1.992.511 2.565 1.516.573 1.013.855 2.256.855 3.728 0 1.596-.344 3.217-1.049 4.874a10.264 10.264 0 01-3.147 4.143c-5.544 4.91-10.488 9.387-14.834 13.433-4.354 4.046-8.453 7.527-12.313 10.445-3.861 2.917-7.625 5.165-11.3 6.76-3.676 1.596-7.615 2.389-11.811 2.389-3.94 0-6.981-.864-9.131-2.574-2.151-1.719-3.226-4.081-3.226-7.086v-.688c0-.211.026-.476.079-.784.203-1.843 1.013-3.958 2.406-6.347 1.402-2.388 3.085-4.874 5.051-7.456a193.85 193.85 0 016.293-7.819 370.093 370.093 0 006.179-7.5c1.886-2.363 3.455-4.522 4.698-6.488 1.242-1.965 1.868-3.552 1.868-4.786 0-.74-.264-1.322-.775-1.745-.52-.432-1.375-.644-2.565-.644-2.072 0-4.205.538-6.408 1.613-2.204 1.076-4.381 2.513-6.523 4.319-2.15 1.807-4.248 3.879-6.293 6.214a90.809 90.809 0 00-5.747 7.272 96.908 96.908 0 00-4.892 7.589c-1.472 2.547-2.732 4.892-3.763 7.043-.309.678-.75 1.63-1.323 2.856a186.652 186.652 0 00-1.859 4.142 249.14 249.14 0 01-2.142 4.733 205.953 205.953 0 00-2.054 4.601c-.626 1.446-1.181 2.724-1.675 3.87a92.798 92.798 0 01-1.048 2.344c-.265.556-.688 1.596-1.287 3.129-.6 1.534-1.278 3.323-2.063 5.386-.775 2.054-1.595 4.213-2.441 6.487-.855 2.274-1.657 4.416-2.407 6.443-.749 2.028-1.41 3.799-1.983 5.333-.573 1.534-.934 2.574-1.093 3.129a34.505 34.505 0 01-1.824 4.513c-.697 1.41-1.499 2.653-2.407 3.728a10.906 10.906 0 01-3.111 2.574c-1.163.643-2.477.961-3.922.961-1.869 0-3.403-.45-4.628-1.331-1.216-.89-1.824-2.592-1.824-5.104 0-1.225.158-2.485.467-3.772a34.562 34.562 0 011.163-3.817c.468-1.26.944-2.485 1.437-3.675.494-1.199.943-2.345 1.357-3.455a1634.13 1634.13 0 018.55-18.448 817.72 817.72 0 008.347-18.316 448.46 448.46 0 007.422-17.805c2.274-5.826 4.169-11.414 5.667-16.747a302.49 302.49 0 001.71-4.698 64.185 64.185 0 012.486-5.985c.934-1.965 1.983-3.666 3.147-5.103 1.163-1.446 2.423-2.16 3.763-2.16 2.071 0 3.57.476 4.504 1.428.935.952 1.402 2.345 1.402 4.187 0 .37-.053.952-.159 1.745-.106.793-.238 1.64-.388 2.53a60.99 60.99 0 01-.502 2.53c-.185.793-.353 1.375-.503 1.745a105.843 105.843 0 016.214-6.214 64.488 64.488 0 016.919-5.571c2.38-1.657 4.813-3.005 7.299-4.054 2.485-1.04 4.971-1.56 7.456-1.56 1.71 0 3.403.246 5.086.74 1.684.494 3.182 1.207 4.504 2.159a11.35 11.35 0 013.226 3.588c.829 1.445 1.243 3.111 1.243 5.015 0 2.521-.635 5.2-1.904 8.056-1.269 2.856-2.864 5.721-4.777 8.603a108.982 108.982 0 01-6.214 8.417 310.52 310.52 0 01-6.258 7.457 711.446 711.446 0 00-4.892 5.703c-1.322 1.569-2.01 2.627-2.063 3.173 0 .741.238 1.331.697 1.798.458.467 1.243.688 2.335.688.882 0 2.178-.494 3.888-1.472 1.709-.979 4.107-2.68 7.183-5.104 3.076-2.424 6.99-5.676 11.732-9.757 4.742-4.072 10.586-9.211 17.522-15.407v0z" fill="#fff" stroke="#fff" stroke-width="3" stroke-miterlimit="10"/></g><defs><clipPath id="clip0"><path fill="#fff" d="M0 0h450v450H0z"/></clipPath></defs></svg>