<svg width="450" height="450" fill="none" xmlns="http://www.w3.org/2000/svg"><path fill="#FC8E5E" d="M0 0h450v450H0z"/><path d="M117.064 345.102L93 75h264.56l-24.064 269.956L225.061 375" fill="#E44D26"/><path d="M225.28 352.03V97.168h108.143l-20.637 230.433" fill="#F16529"/><path d="M142.149 130.202h83.131v33.106h-46.816l3.063 33.909h43.753v33.033h-74.089l-9.042-100.048zm10.501 116.675h33.252l2.334 26.47 37.044 9.917v34.565l-67.963-18.959" fill="#EBEBEB"/><path d="M308.119 130.202h-82.985v33.106h79.922l3.063-33.106zm-6.053 67.015h-76.932v33.106h40.836l-3.865 43.024-36.971 9.917v34.419l67.817-18.813" fill="#fff"/></svg>