<svg width="450" height="450" fill="none" xmlns="http://www.w3.org/2000/svg"><path fill="url(#paint0_linear)" d="M0 0h450v450H0z"/><g clip-path="url(#clip0)"><path d="M75 167h300v100H225v16.667h-66.667V267H75V167zm16.667 83.333H125v-50h16.667v50h16.666v-66.666H91.667v66.666zM175 183.667V267h33.333v-16.667h33.334v-66.666H175zm33.333 16.666H225v33.334h-16.667v-33.334zm50-16.666v66.666h33.334v-50h16.666v50H325v-50h16.667v50h16.666v-66.666h-100z" fill="#CB3837"/><path d="M91.667 250.333H125v-50h16.667v50h16.666v-66.666H91.667v66.666zM175 183.667V267h33.333v-16.667h33.334v-66.666H175zm50 50h-16.667v-33.334H225v33.334zM258.333 183.667v66.666h33.334v-50h16.666v50H325v-50h16.667v50h16.666v-66.666h-100z" fill="#fff"/></g><defs><linearGradient id="paint0_linear" x1="0" y1="225" x2="450" y2="225" gradientUnits="userSpaceOnUse"><stop stop-color="#FB8414"/><stop offset="1" stop-color="#C9235D"/></linearGradient><clipPath id="clip0"><path fill="#fff" d="M75 167h300v116.667H75z"/></clipPath></defs></svg>