<svg width="450" height="450" fill="none" xmlns="http://www.w3.org/2000/svg"><path fill="#FBDFDA" d="M0 0h450v450H0z"/><g clip-path="url(#clip0)"><path d="M367.929 325.166h-121.36v-26.044h94.637v-12.088h-94.637v-20.432h94.637v-12.088h-94.637v-33.591c7.625 9.19 18.965 15.027 31.639 15.027 22.963 0 41.577-19.135 41.577-42.736h-41.577v-42.736c-12.674 0-24.014 5.837-31.639 15.027v-47.55h121.377l-.017 207.211zm.017-217.572H246.569v-32.59L71.013 106.31v237.41l175.556 31.308v-39.502h121.377c5.559 0 10.08-4.647 10.08-10.361V117.955c0-5.714-4.521-10.361-10.08-10.361z" fill="#CB4A32"/><path d="M284.647 144.433v42.736h41.577c0-23.602-18.614-42.736-41.577-42.736z" fill="#CB4A32"/><path fill-rule="evenodd" clip-rule="evenodd" d="M145.296 223.186c7.004.553 13.845 1.898 18.098-5.565 3.216-5.631 2.945-15.921-.784-20.248-4.823-5.595-11.054-4.797-17.314-3.778v29.591zm-.494 52.977h-17.584V175.282c13.566 0 27.063-.392 40.509.264 3.535.173 7.639 2.874 10.248 5.644 9.986 10.597 9.987 23.798 7.004 36.964-2.66 11.727-10.02 19.977-21.62 22.878-5.779 1.446-11.963 1.18-18.557 1.737v33.394z" fill="#fff"/></g><defs><clipPath id="clip0"><path fill="#fff" d="M71 75h307.062v300H71z"/></clipPath></defs></svg>