<svg width="450" height="450" fill="none" xmlns="http://www.w3.org/2000/svg"><path fill="#264E73" d="M0 0h450v450H0z"/><g clip-path="url(#clip0)"><path d="M223.698 75c-76.557 0-71.776 33.2-71.776 33.2l.085 34.395h73.057v10.327H122.989S74 147.366 74 224.613s42.759 74.507 42.759 74.507h25.518v-35.845s-1.375-42.759 42.076-42.759h72.46s40.71.658 40.71-39.345v-66.143S303.704 75 223.698 75zm-40.284 23.129a13.131 13.131 0 0113.144 13.143 13.132 13.132 0 01-13.144 13.144 13.131 13.131 0 01-13.143-13.144 13.131 13.131 0 0113.143-13.143z" fill="url(#paint0_linear)"/><path d="M225.872 375c76.558 0 71.777-33.2 71.777-33.2l-.085-34.395h-73.057v-10.327h102.074s48.989 5.556 48.989-71.691-42.758-74.507-42.758-74.507h-25.519v35.845s1.376 42.759-42.076 42.759h-72.459s-40.711-.658-40.711 39.345v66.143S145.867 375 225.872 375zm40.284-23.129a13.13 13.13 0 01-13.143-13.143 13.13 13.13 0 0113.143-13.144 13.13 13.13 0 0113.143 13.144 13.13 13.13 0 01-13.143 13.143z" fill="url(#paint1_linear)"/></g><defs><linearGradient id="paint0_linear" x1="102.981" y1="101.223" x2="252.099" y2="250.839" gradientUnits="userSpaceOnUse"><stop stop-color="#387EB8"/><stop offset="1" stop-color="#366994"/></linearGradient><linearGradient id="paint1_linear" x1="194.712" y1="196.402" x2="354.865" y2="349.837" gradientUnits="userSpaceOnUse"><stop stop-color="#FFE052"/><stop offset="1" stop-color="#FFC331"/></linearGradient><clipPath id="clip0"><path fill="#fff" d="M74 75h301.57v300H74z"/></clipPath></defs></svg>