<svg width="450" height="450" fill="none" xmlns="http://www.w3.org/2000/svg"><path fill="#282C34" d="M0 0h450v450H0z"/><path d="M367.842 225.306c0-18.935-23.713-36.881-60.07-48.009 8.39-37.056 4.661-66.537-11.769-75.976-3.787-2.214-8.216-3.263-13.051-3.263v12.993c2.68 0 4.836.524 6.642 1.515 7.924 4.545 11.361 21.849 8.681 44.106-.641 5.476-1.69 11.244-2.971 17.129-11.42-2.797-23.889-4.952-36.998-6.351-7.866-10.778-16.022-20.567-24.238-29.131 18.994-17.654 36.823-27.326 48.942-27.326V98c-16.023 0-36.998 11.42-58.206 31.229-21.208-19.693-42.183-30.996-58.205-30.996v12.993c12.061 0 29.948 9.613 48.941 27.151-8.156 8.565-16.313 18.295-24.062 29.073-13.168 1.399-25.636 3.554-37.056 6.409a175.746 175.746 0 01-3.03-16.896c-2.738-22.257.641-39.561 8.507-44.164 1.748-1.049 4.02-1.515 6.7-1.515V98.291c-4.894 0-9.322 1.05-13.168 3.263-16.372 9.439-20.042 38.862-11.594 75.801C105.597 188.542 82 206.429 82 225.306c0 18.936 23.713 36.881 60.07 48.01-8.39 37.055-4.661 66.537 11.769 75.975 3.787 2.215 8.215 3.263 13.11 3.263 16.022 0 36.997-11.419 58.205-31.229 21.208 19.693 42.183 30.996 58.205 30.996 4.895 0 9.323-1.049 13.168-3.263 16.372-9.438 20.043-38.861 11.595-75.801 36.123-11.128 59.72-29.073 59.72-47.951zm-75.86-38.862c-2.155 7.516-4.835 15.265-7.865 23.015-2.389-4.662-4.894-9.323-7.633-13.984-2.68-4.661-5.535-9.205-8.39-13.633 8.274 1.223 16.256 2.738 23.888 4.602zm-26.684 62.051c-4.545 7.866-9.206 15.324-14.042 22.257a303.321 303.321 0 01-26.335 1.165c-8.798 0-17.596-.408-26.219-1.107-4.836-6.933-9.555-14.333-14.1-22.14a303.421 303.421 0 01-12.118-23.189c3.612-7.807 7.69-15.615 12.06-23.247 4.545-7.866 9.206-15.324 14.042-22.257a303.321 303.321 0 0126.335-1.165c8.798 0 17.596.408 26.219 1.107 4.836 6.933 9.555 14.333 14.099 22.14a303.435 303.435 0 0112.119 23.189c-3.67 7.807-7.691 15.615-12.06 23.247zm18.819-7.574a249.75 249.75 0 018.04 23.189 261.79 261.79 0 01-24.004 4.661c2.855-4.486 5.71-9.089 8.39-13.808 2.68-4.662 5.185-9.381 7.574-14.042zm-59.08 62.167c-5.418-5.593-10.837-11.827-16.197-18.644 5.244.233 10.604.408 16.023.408 5.476 0 10.895-.117 16.197-.408a227.244 227.244 0 01-16.023 18.644zm-43.348-34.317c-8.273-1.224-16.255-2.738-23.888-4.603 2.156-7.516 4.836-15.265 7.866-23.014 2.389 4.661 4.894 9.322 7.632 13.983a386.733 386.733 0 008.39 13.634zm43.057-121.247c5.419 5.593 10.837 11.828 16.197 18.645-5.243-.233-10.604-.408-16.022-.408-5.477 0-10.895.116-16.197.408a227.259 227.259 0 0116.022-18.645zm-43.115 34.318c-2.855 4.486-5.71 9.089-8.39 13.808a329.478 329.478 0 00-7.574 13.983 249.368 249.368 0 01-8.041-23.189 282.84 282.84 0 0124.005-4.602zm-52.729 72.946c-20.625-8.798-33.967-20.334-33.967-29.482 0-9.147 13.342-20.742 33.967-29.481 5.011-2.156 10.488-4.079 16.139-5.885 3.321 11.42 7.691 23.306 13.11 35.483-5.361 12.119-9.672 23.946-12.935 35.308-5.768-1.807-11.245-3.788-16.314-5.943zm31.346 83.259c-7.924-4.545-11.361-21.849-8.681-44.106.641-5.477 1.69-11.245 2.971-17.13 11.42 2.797 23.888 4.953 36.998 6.351 7.865 10.779 16.022 20.567 24.238 29.132-18.994 17.654-36.823 27.326-48.942 27.326-2.622-.059-4.836-.583-6.584-1.573zM298.45 293.65c2.738 22.256-.641 39.561-8.507 44.164-1.748 1.048-4.02 1.514-6.7 1.514-12.061 0-29.948-9.613-48.942-27.15 8.157-8.565 16.314-18.295 24.063-29.074 13.168-1.398 25.636-3.554 37.056-6.409 1.34 5.885 2.389 11.536 3.03 16.955zm22.431-38.862c-5.01 2.155-10.487 4.078-16.139 5.884-3.321-11.419-7.691-23.305-13.109-35.482 5.36-12.119 9.672-23.947 12.934-35.308 5.769 1.806 11.245 3.787 16.373 5.943 20.625 8.798 33.967 20.334 33.967 29.481-.058 9.148-13.4 20.742-34.026 29.482z" fill="#61DAFB"/><path d="M224.863 251.933c14.705 0 26.626-11.921 26.626-26.627 0-14.705-11.921-26.626-26.626-26.626-14.706 0-26.627 11.921-26.627 26.626 0 14.706 11.921 26.627 26.627 26.627z" fill="#61DAFB"/></svg>