<svg width="450" height="450" fill="none" xmlns="http://www.w3.org/2000/svg"><path fill="#DC461D" d="M0 0h450v450H0z"/><path d="M96.437 196.077c-1.228-.308-2.713-.615-4.453-.923a74.724 74.724 0 00-5.067-.769 45.46 45.46 0 00-5.068-.616 68.6 68.6 0 00-4.146-.154c-2.661 0-5.272.154-7.83.462-2.56.205-5.17.667-7.832 1.385v53.692H43v-67.539a114.294 114.294 0 0115.355-4.461c5.324-1.128 11.517-1.692 18.58-1.692 1.024 0 2.457.051 4.3.153 1.945.103 3.993.308 6.142.616 2.15.205 4.3.513 6.45.923 2.252.308 4.248.769 5.988 1.384l-3.378 17.539zM141.122 234.846c4.606 0 8.138-.308 10.595-.923 2.457-.718 3.685-2.102 3.685-4.154 0-1.333-.409-2.461-1.228-3.384-.717-.923-1.792-1.693-3.225-2.308-1.331-.718-2.917-1.385-4.76-2a174.272 174.272 0 00-5.528-1.846 162.797 162.797 0 01-8.446-2.769c-2.866-1.129-5.476-2.513-7.831-4.154a20.923 20.923 0 01-5.835-6.154c-1.536-2.564-2.303-5.744-2.303-9.539 0-3.077.563-5.948 1.689-8.615 1.228-2.769 3.071-5.179 5.528-7.231 2.559-2.154 5.784-3.795 9.674-4.923 3.89-1.231 8.548-1.846 13.973-1.846 4.709 0 9.06.359 13.052 1.077 4.095.718 7.627 1.744 10.596 3.077l-2.918 16a883.345 883.345 0 01-8.138-2.462c-3.686-1.23-7.832-1.846-12.438-1.846-4.812 0-8.087.616-9.828 1.846-1.638 1.129-2.457 2.359-2.457 3.693 0 1.128.359 2.153 1.075 3.077.819.82 1.843 1.589 3.071 2.307a61.13 61.13 0 004.453 2.154c1.741.615 3.583 1.231 5.528 1.846 2.764.923 5.631 1.949 8.6 3.077 2.968 1.128 5.63 2.564 7.984 4.308 2.457 1.641 4.453 3.795 5.989 6.461 1.536 2.564 2.303 5.744 2.303 9.539 0 2.974-.563 5.795-1.689 8.461-1.126 2.667-3.02 4.975-5.681 6.923-2.56 1.949-5.938 3.488-10.135 4.616-4.197 1.128-9.367 1.692-15.509 1.692-6.245 0-11.568-.718-15.97-2.154-4.402-1.436-7.933-2.718-10.595-3.846L117.321 229a146.806 146.806 0 0011.363 4 42.977 42.977 0 0012.438 1.846zM255.366 176.846a3422.042 3422.042 0 00-5.681 20 517.26 517.26 0 01-5.528 19.077 344.579 344.579 0 01-6.296 18.154 237.278 237.278 0 01-7.063 17.385c-1.945 4.102-3.89 7.641-5.835 10.615-1.843 2.974-3.942 5.385-6.296 7.231a21.854 21.854 0 01-7.678 4.307c-2.764.923-6.04 1.385-9.827 1.385-3.174 0-6.091-.256-8.753-.769-2.559-.513-4.709-1.18-6.449-2l3.531-15.846c2.048.923 3.839 1.538 5.375 1.846 1.638.41 3.378.615 5.221.615 3.685 0 6.654-1.231 8.906-3.692 2.252-2.462 4.043-5.385 5.374-8.769-4.504-9.026-9.008-19.334-13.513-30.923-4.504-11.693-8.599-24.565-12.284-38.616h19.655A716.028 716.028 0 00211.296 189a619.597 619.597 0 003.839 12.923 466.386 466.386 0 004.146 12.769 270.332 270.332 0 004.607 11.539 1230.46 1230.46 0 003.224-11.539 571.884 571.884 0 003.225-12.615 588.049 588.049 0 002.918-12.923 485.385 485.385 0 002.764-12.308h19.347zM269.34 179.154c3.378-.923 7.524-1.795 12.438-2.616 5.016-.82 10.442-1.23 16.277-1.23 5.732 0 10.493.82 14.28 2.461 3.788 1.539 6.757 3.795 8.906 6.769 2.253 2.872 3.839 6.359 4.761 10.462.921 4 1.382 8.462 1.382 13.385v40.769h-18.888v-38.308c0-6.769-.767-11.641-2.303-14.615-1.535-2.975-4.658-4.462-9.367-4.462-1.433 0-2.866.052-4.299.154a77.344 77.344 0 00-4.3.462v56.769H269.34v-70zM343.2 213c0-5.231.819-10.154 2.457-14.769 1.638-4.616 4.146-8.616 7.524-12 3.378-3.487 7.626-6.205 12.745-8.154 5.221-2.051 11.414-3.077 18.58-3.077 4.3 0 8.19.308 11.67.923 3.481.615 7.013 1.641 10.596 3.077l-4.146 15.231c-2.048-.718-4.351-1.334-6.91-1.846-2.457-.616-5.631-.923-9.521-.923-4.504 0-8.292.564-11.363 1.692-2.969 1.025-5.374 2.513-7.217 4.461-1.843 1.847-3.173 4.103-3.992 6.77-.819 2.666-1.229 5.538-1.229 8.615 0 6.667 1.843 11.897 5.528 15.692 3.788 3.795 10.186 5.693 19.195 5.693 2.968 0 6.039-.206 9.213-.616 3.276-.41 6.244-1.077 8.906-2L408 247.308c-2.662 1.025-5.886 1.846-9.674 2.461-3.788.718-8.241 1.077-13.359 1.077-7.371 0-13.718-.974-19.041-2.923-5.221-1.949-9.52-4.615-12.899-8-3.378-3.385-5.886-7.385-7.524-12-1.535-4.615-2.303-9.59-2.303-14.923z" fill="#fff"/></svg>