<svg xmlns="http://www.w3.org/2000/svg" width="450" height="450"><path fill="#ffb13b" d="M0 0h450v450H0z" data-name="Layer 2"/><g data-name="Layer 1"><rect data-name="background" x="75" y="75" width="300" height="300" rx="12" fill="#f90"/><rect data-name="top-left" x="75" y="75" width="150" height="150" rx="12" fill="#ffb13b"/><rect data-name="bottom-right" x="225" y="225" width="150" height="150" rx="12" fill="#de8500"/><g data-name="circles" fill="#f90"><circle data-name="n" cx="225" cy="130.2" r="55.2"/><circle data-name="ne" cx="292.2" cy="157.8" r="55.2"/><circle data-name="e" cx="319.8" cy="225" r="55.2"/><circle data-name="se" cx="292.2" cy="292.2" r="55.2"/><circle data-name="s" cx="225" cy="319.8" r="55.2"/><circle data-name="sw" cx="157.8" cy="292.2" r="55.2"/><circle data-name="w" cx="130.2" cy="225" r="55.2"/><circle data-name="nw" cx="157.8" cy="157.8" r="55.2"/></g><g data-name="stars"><path data-name="black-star" d="M264.26 130.16a39.3 39.3 0 00-78.59 0 39.27 39.27 0 00-55.49 55.57 39.28 39.28 0 100 78.55 39.26 39.26 0 0055.49 55.54 39.3 39.3 0 0078.59 0 39.27 39.27 0 0055.54-55.54 39.28 39.28 0 000-78.55 39.28 39.28 0 10-55.54-55.57z"/><path data-name="white-star" d="M240 145.22v43.46l30.77-30.76A21.26 21.26 0 11292 179.2L261.3 210h43.47a21.25 21.25 0 110 30.08H261.3l30.7 30.68A21.28 21.28 0 11270.76 292L240 261.28v43.5a21.28 21.28 0 11-30.08 0v-43.5L179.21 292a21.26 21.26 0 11-21.28-21.29L188.7 240h-43.46a21.27 21.27 0 110-30.08h43.47l-30.77-30.74a21.25 21.25 0 1121.29-21.28l30.71 30.76v-43.44a21.3 21.3 0 1130.07 0z" fill="#fff"/></g><g data-name="svg-textbox"><path data-name="text-backdrop" d="M90.9 225H359v120q0 15-15 15H105.9q-15 0-15-15z"/><path data-name="shine" d="M119 237.63h214.15a16 16 0 0115.94 16v53.73c-82.75-10.21-164.78-24.38-246-23.05v-30.73a16 16 0 0115.91-16z" fill="#3f3f3f"/><g data-name="svg-text" fill="#fff" stroke="#000" stroke-miterlimit="30.72" stroke-width="3.867"><path data-name="S" d="M129.94 293.78A35 35 0 11189.71 269h-20.49a14.51 14.51 0 10-24.78 10.26h0a14.61 14.61 0 0010.27 4.22v0a34.76 34.76 0 0124.73 10.25h0a35 35 0 11-59.73 24.75h20.49a14.51 14.51 0 1024.73-10.23h0a14.31 14.31 0 00-10.22-4.25h0a35 35 0 01-24.77-10.27z"/><path data-name="V" d="M259.76 234.01l-24.73 119.55h-20.55l-24.77-119.55h20.54l14.51 70.02 14.5-70.02h20.5z"/><path data-name="G" d="M294.76 283.54h35.05v35h0a35 35 0 11-70 0h0V269h-.05a35 35 0 1170.05 0h-20.55a14.48 14.48 0 10-29 0v49.5h0a14.48 14.48 0 1029 0V304h-14.5v-20.5z"/></g></g></g></svg>