<svg width="450" height="450" fill="none" xmlns="http://www.w3.org/2000/svg"><path fill="#23282D" d="M0 0h450v450H0z"/><path d="M96.322 224.996c0 50.934 29.6 94.952 72.522 115.81l-61.381-168.179a128.192 128.192 0 00-11.141 52.369zM311.87 218.503c0-15.903-5.712-26.917-10.612-35.489-6.523-10.6-12.637-19.576-12.637-30.176 0-11.828 8.972-22.839 21.608-22.839.571 0 1.112.071 1.668.103-22.894-20.975-53.395-33.78-86.896-33.78-44.954 0-84.505 23.065-107.514 58 3.019.091 5.864.155 8.281.155 13.459 0 34.294-1.634 34.294-1.634 6.936-.409 7.754 9.78.825 10.6 0 0-6.971.82-14.728 1.227l46.86 139.382 28.16-84.457-20.048-54.93c-6.93-.407-13.494-1.227-13.494-1.227-6.934-.406-6.121-11.008.813-10.6 0 0 21.251 1.634 33.895 1.634 13.457 0 34.294-1.634 34.294-1.634 6.941-.408 7.757 9.78.825 10.6 0 0-6.986.82-14.728 1.227l46.502 138.326 12.835-42.89c5.563-17.799 9.797-30.582 9.797-41.598z" fill="#0073AA"/><path d="M227.259 236.252L188.65 348.441a128.669 128.669 0 0036.351 5.242 128.54 128.54 0 0042.732-7.294 11.219 11.219 0 01-.916-1.773l-39.558-108.364zM337.913 163.259c.553 4.099.866 8.499.866 13.232 0 13.058-2.438 27.737-9.784 46.091l-39.306 113.643c38.256-22.308 63.987-63.754 63.987-111.226.003-22.372-5.712-43.41-15.763-61.74z" fill="#0073AA"/><path d="M225.001 75C142.293 75 75 142.288 75 224.996 75 307.715 142.293 375 225.001 375c82.706 0 150.009-67.285 150.009-150.004C375.007 142.288 307.707 75 225.001 75zm0 293.125c-78.916 0-143.123-64.208-143.123-143.129 0-78.915 64.205-143.118 143.123-143.118 78.914 0 143.116 64.203 143.116 143.118 0 78.921-64.202 143.129-143.116 143.129z" fill="#0073AA"/></svg>