<svg width="450" height="450" fill="none" xmlns="http://www.w3.org/2000/svg"><path fill="#E9FBDA" d="M0 0h450v450H0z"/><path d="M360.721 117.851H225v207.144h135.721V117.851z" fill="#fff"/><path d="M360.721 117.851v207.144H225V117.851h135.721zm0-14.279H225c-7.889 0-14.279 6.39-14.279 14.279v207.144c0 7.89 6.39 14.279 14.279 14.279h135.721c7.89 0 14.279-6.389 14.279-14.279V117.851c0-7.889-6.389-14.279-14.279-14.279z" fill="#217346"/><path d="M339.288 139.284h-50.004v21.432h50.004v-21.432zM339.288 174.995h-50.004v21.433h50.004v-21.433zM339.288 210.721h-50.004v21.433h50.004v-21.433zM339.288 246.433h-50.004v21.432h50.004v-21.432zM339.288 282.144h-50.004v21.433h50.004v-21.433zM275.005 139.284H225v21.432h50.005v-21.432zM275.005 174.995H225v21.433h50.005v-21.433zM275.005 210.721H225v21.433h50.005v-21.433zM275.005 246.433H225v21.432h50.005v-21.432zM275.005 282.144H225v21.433h50.005v-21.433z" fill="#217346"/><path fill-rule="evenodd" clip-rule="evenodd" d="M253.572 75L75 106.284v237.432L253.572 375V75z" fill="#217346"/><path d="M202.572 160.716l-24.923 1.5-15.216 35.712-.996 3.216-.721 2.423-.649 2.351-.505 1.933c0-.952-.216-1.861-.649-2.712l-.649-2.495-.721-2.351-.779-2.149-13.067-33.923-24.058 1.5 25.645 55.572-28.356 55.572 23.495 1.428 15.779-36.432.721-2.496.577-2.221.505-1.86v-1.5l.505 2.639.504 2.221.433 1.717.433 1.211 16.428 38.856 27.288 1.716-30.721-61.211 29.697-60.217z" fill="#fff"/></svg>