<svg width="450" height="450" fill="none" xmlns="http://www.w3.org/2000/svg"><path fill="#2C8EBB" d="M0 0h450v450H0z"/><path d="M224.5 0C319.741 0 397 77.259 397 172.5S319.741 345 224.5 345 52 267.741 52 172.5 129.259 0 224.5 0z" fill="#2C8EBB"/><path d="M341.853 224.783c-1.199-9.458-9.191-15.985-19.448-15.851-15.318.199-28.173 8.125-36.698 13.387-3.33 2.064-6.194 3.596-8.658 4.728.533-7.726.067-17.849-3.929-28.972-4.862-13.32-11.389-21.512-16.052-26.241 5.395-7.859 12.788-19.315 16.251-37.031 2.997-15.119 2.065-38.63-4.795-51.816-1.399-2.665-3.73-4.596-6.66-5.395-1.199-.333-3.464-1-7.926.266-6.727-13.92-9.058-15.385-10.856-16.584-3.73-2.398-8.126-2.93-12.255-1.398-5.528 1.998-10.257 7.326-14.719 16.783a68.856 68.856 0 00-1.798 4.063c-8.459.6-21.779 3.663-33.035 15.851-1.399 1.532-4.129 2.665-6.993 3.73h.066c-5.861 2.065-8.525 6.86-11.788 15.518-4.529 12.122.133 24.044 4.728 31.77-6.26 5.594-14.585 14.519-18.981 24.976-5.462 12.92-6.061 25.575-5.861 32.435-4.662 4.929-11.855 14.186-12.655 24.576-1.065 14.52 4.196 24.377 6.527 27.973.666 1.066 1.399 1.932 2.198 2.797-.266 1.799-.333 3.73.067 5.728.866 4.662 3.796 8.459 8.259 10.856 8.791 4.663 21.046 6.661 30.503 1.932 3.397 3.596 9.591 7.06 20.847 7.06h.666c2.864 0 39.229-1.932 49.818-4.529 4.729-1.132 7.993-3.13 10.124-4.929 6.793-2.131 25.575-8.525 43.292-19.98 12.521-8.126 16.85-9.858 26.174-12.122 9.058-2.198 14.719-10.457 13.587-19.581zm-15.851 9.79c-10.657 2.531-16.051 4.862-29.239 13.454-20.58 13.321-43.091 19.515-43.091 19.515s-1.865 2.797-7.26 4.062c-9.324 2.265-44.424 4.196-47.621 4.263-8.591.066-13.853-2.198-15.318-5.728-4.463-10.656 6.394-15.319 6.394-15.319s-2.398-1.465-3.797-2.797c-1.265-1.265-2.597-3.796-2.997-2.864-1.665 4.063-2.531 13.987-6.993 18.449-6.127 6.194-17.716 4.129-24.576.533-7.526-3.996.533-13.387.533-13.387s-4.063 2.398-7.327-2.531c-2.93-4.529-5.661-12.255-4.928-21.779.799-10.856 12.921-21.379 12.921-21.379s-2.132-16.051 4.862-32.502c6.327-14.986 23.377-27.041 23.377-27.041s-14.32-15.851-8.991-30.104c3.463-9.324 4.862-9.258 5.994-9.657 3.996-1.532 7.859-3.197 10.723-6.328 14.319-15.451 32.568-12.52 32.568-12.52s8.659-26.309 16.651-21.18c2.464 1.598 11.322 21.312 11.322 21.312s9.458-5.528 10.523-3.463c5.728 11.123 6.394 32.369 3.863 45.29-4.262 21.312-14.919 32.768-19.181 39.961-.999 1.665 11.456 6.927 19.315 28.706 7.259 19.914.799 36.631 1.931 38.496.2.333.266.466.266.466s8.326.666 25.043-9.657c8.925-5.528 19.514-11.722 31.569-11.856 11.656-.199 12.255 13.454 3.464 15.585zM178.659 333.684c-2.607 8.998-6.78 15.517-11.474 20.733v-45.769c0-3.129-2.739-5.737-7.042-5.737-1.825 0-3.39.913-3.39 2.217 0 .912.522 1.695.522 4.172v20.994c-1.565 9.128-5.477 17.603-10.693 17.603-3.781 0-5.998-3.781-5.998-10.822 0-10.954 1.434-16.691 3.782-26.34.521-1.956 4.303-7.172-2.087-7.172-6.911 0-5.998 2.608-6.911 4.825 0 0-4.368 15.517-4.368 29.339 0 11.344 4.759 18.776 13.496 18.776 5.607 0 9.649-3.781 12.779-8.997v16.56c-8.606 7.563-16.169 14.213-16.169 27.383 0 8.346 5.215 14.996 12.518 14.996 6.65 0 13.561-4.825 13.561-18.516V365.37c7.041-6.128 14.604-13.822 19.037-28.947.131-.522.131-1.174.131-1.304 0-2.478-2.478-5.347-4.564-5.347-1.304 0-2.347 1.174-3.13 3.912zm-25.035 64.546c-2.087 0-3.391-3.13-3.391-7.172 0-7.824 2.869-12.779 7.042-17.082v13.953c0 2.477.521 10.301-3.651 10.301z" fill="#fff"/><path d="M216.083 347.767c-3.13 0-4.434-3.13-4.434-5.998v-21.515c0-3.13-2.738-5.738-7.041-5.738-1.825 0-3.39.913-3.39 2.217 0 .913.521 1.695.521 4.173v20.08c-1.434 3.651-3.781 6.781-7.302 6.781-4.564 0-7.432-3.912-7.432-10.692 0-18.777 11.605-27.253 21.515-27.253 1.304 0 2.608.261 3.781.261 1.304 0 1.696-.783 1.696-2.999 0-3.391-2.478-5.477-5.999-5.477-15.908 0-31.034 13.3-31.034 35.076 0 11.084 5.347 19.69 15.517 19.69 4.955 0 8.606-2.347 11.214-5.346 1.956 3.129 5.477 5.346 10.041 5.346 11.214 0 16.43-11.736 18.646-20.342.131-.521.131-.782.131-.912 0-2.478-2.478-5.347-4.564-5.347-1.304 0-2.608 1.174-3.13 3.912-1.173 5.738-3.52 14.083-8.736 14.083z" fill="#fff"/><path d="M253.767 356.373c11.214 0 16.299-11.736 18.647-20.342 0-.26.13-.521.13-.912 0-2.478-2.478-5.347-4.564-5.347-1.304 0-2.608 1.174-3.129 3.912-1.174 5.738-3.391 14.083-9.389 14.083-3.521 0-5.216-3.39-5.216-7.041 0-13.04 5.868-28.427 5.868-29.991.522-2.999-4.694-7.302-6.259-7.302h-6.78c-1.304 0-2.608 0-6.911-.522-1.435-5.346-5.086-6.911-8.215-6.911-3.391 0-6.52 2.347-6.52 5.998 0 3.782 2.347 6.52 5.607 8.345-.13 6.651-.652 17.473-2.086 22.689-1.174 4.434 5.607 9.128 7.302 3.651 2.347-7.563 3.129-18.907 3.26-23.992h11.344c-4.173 11.214-6.52 20.472-6.52 28.817 0 11.475 7.302 14.865 13.431 14.865z" fill="#fff"/><path d="M269.521 356.347c-2.608 0-6.259-.913-6.259-5.737v-41.336c0-2.477-.522-3.259-.522-4.172 0-1.304 1.565-2.217 3.391-2.217 4.303 0 7.041 2.608 7.041 5.737v5.868c3.521-7.302 8.215-12.909 14.604-12.909 8.737 0 10.823 7.172 10.823 13.17v26.992c0 1.173 0 5.998 3.39 5.998 5.216 0 7.889-8.345 9.063-14.083.521-2.738 1.825-3.911 3.129-3.911 2.087 0 4.564 2.868 4.564 5.346 0 .13 0 .391-.13.912-2.217 8.607-7.759 20.342-18.973 20.342-6.911 0-10.953-5.607-10.953-12.257v-26.47c0-4.043-.261-7.433-2.738-7.433-3.782 0-11.866 11.214-12.779 21.515v19.038c0 2.478.13 5.607-3.651 5.607z" fill="#fff"/></svg>