<svg width="450" height="450" fill="none" xmlns="http://www.w3.org/2000/svg"><path fill="#FEEBC9" d="M0 0h450v450H0z"/><g clip-path="url(#clip0)"><path d="M399.552 237.487c.291-4.126.448-8.288.448-12.487 0-96.65-78.35-175-175-175S50 128.35 50 225c0 80.506 54.366 148.305 128.385 168.712l221.167-156.225z" fill="#FDCC77"/><path d="M399.552 237.487L265.326 103.261 131.413 346.739l46.973 46.973A175.144 175.144 0 00225 400c92.451 0 168.148-71.692 174.552-162.513z" fill="#FCB433"/><path d="M240.263 278.261l-15.461-175h-93.389v159.782l108.85 15.218z" fill="#fff"/><path d="M318.587 263.043V156.522l-38.044-15.218-15.217-38.043h-40.524l.244 175 93.541-15.218z" fill="#E8E6E6"/><path d="M265.326 156.522v-53.261l53.261 53.261h-53.261z" fill="#fff"/><path d="M318.587 263.043H131.413v83.696h187.174v-83.696z" fill="#9E7120"/><path d="M194.188 315.707h19.66v7.294h-31.973v-5.897l19.401-23.021h-18.727v-7.295h30.989v5.897l-19.35 23.022zM220.266 323.001v-36.213h9.209v36.213h-9.209zM253.792 286.788c9.26 0 14.588 4.552 14.588 12.623 0 8.484-5.329 13.399-14.588 13.399h-6.571v10.191h-9.209v-36.213h15.78zm-6.572 18.779h6.105c4.036 0 6.362-2.018 6.362-5.846 0-3.777-2.328-5.69-6.362-5.69h-6.105v11.536z" fill="#fff"/></g><defs><clipPath id="clip0"><path fill="#fff" d="M50 50h350v350H50z"/></clipPath></defs></svg>